<?xml version="1.0" standalone="no"?>
<!DOCTYPE svg PUBLIC "-//W3C//DTD SVG 20010904//EN"
 "http://www.w3.org/TR/2001/REC-SVG-20010904/DTD/svg10.dtd">
<svg version="1.0" xmlns="http://www.w3.org/2000/svg"
 width="1280.000000pt" height="798.000000pt" viewBox="0 0 1280.000000 798.000000"
 preserveAspectRatio="xMidYMid meet">
<metadata>
Created by potrace 1.15, written by Peter Selinger 2001-2017
</metadata>
<g transform="translate(0.000000,798.000000) scale(0.100000,-0.100000)"
fill="#000000" stroke="none">
<path d="M6266 7638 c-57 -21 -5862 -3509 -5888 -3538 -59 -64 -59 -156 0
-220 35 -38 5851 -3526 5902 -3540 70 -19 147 16 180 81 20 38 20 67 20 1705
0 1329 3 1665 13 1661 6 -2 1302 -779 2879 -1725 2037 -1222 2878 -1722 2907
-1727 45 -7 113 17 144 53 48 54 46 -134 47 3597 0 2511 -3 3511 -11 3540 -22
78 -112 134 -189 118 -19 -3 -1323 -780 -2899 -1726 -1576 -945 -2872 -1722
-2878 -1724 -10 -4 -13 333 -13 1663 l0 1669 -23 39 c-12 22 -36 48 -52 57
-39 23 -103 31 -139 17z"/>
</g>
</svg>
